<svg version="1.1"
	 xmlns="http://www.w3.org/2000/svg" xmlns:xlink="http://www.w3.org/1999/xlink" xmlns:a="http://ns.adobe.com/AdobeSVGViewerExtensions/3.0/"
	 x="0px" y="0px" width="200px" height="72px" viewBox="-12.599 -8.223 200 72"
	 overflow="visible" enable-background="new -12.599 -8.223 200 72" xml:space="preserve">
<defs>
</defs>
<path fill="#ffffff" d="M62.103,38.715h-4.528l-3.677-21.781h-0.095l-3.631,21.781h-4.524L40.65,5.15h5.089l2.405,21.305h0.096
	L52.012,5.15h3.677l3.913,21.828h0.092L62.007,5.15h5.089L62.103,38.715z"/>
<path fill="#ffffff" d="M72.376,28.58v3.251c0,1.51,0.894,2.359,2.355,2.359c1.841,0,2.265-1.367,2.355-2.405h4.811
	c0,1.981-0.706,3.819-1.932,5.093c-1.275,1.317-3.016,2.121-5.234,2.121c-2.924,0-5.139-1.367-6.269-3.442
	c-0.66-1.226-0.897-2.922-0.897-4.856v-7.872c0-1.934,0.237-3.633,0.897-4.856c1.13-2.075,3.345-3.442,6.269-3.442
	c4.433,0,7.166,3.253,7.166,7.451v6.599H72.376z M72.376,24.808h4.711v-2.735c0-1.792-0.893-2.734-2.355-2.734
	c-1.462,0-2.355,0.941-2.355,2.734V24.808z"/>
<path fill="#ffffff" d="M85.433,5.15h4.807v11.833h0.096c1.038-1.558,2.547-2.453,4.433-2.453c2.31,0,3.485,0.896,4.291,2.17
	c0.611,0.989,0.752,2.356,0.752,5.797v9.099c0,2.64-0.236,4.102-0.802,5.14c-0.848,1.557-2.26,2.263-4.195,2.263
	c-2.405,0-3.349-1.086-4.574-2.451v2.167h-4.807V5.15z M95,22.168c0-1.508-0.519-2.829-2.355-2.829
	c-1.366,0-2.405,1.086-2.405,2.594v9.287c0,1.743,0.943,2.971,2.405,2.971c1.649,0,2.355-1.321,2.355-3.255V22.168z"/>
<path fill="#ffffff" d="M103.483,5.15h4.811v26.823c0,1.793,0.52,2.311,2.355,2.499v4.526c-4.429,0-7.166-1.132-7.166-6.695V5.15z"
	/>
<path fill="#ffffff" d="M113.524,5.15h4.811v4.808h-4.811V5.15z M113.524,14.813h4.811v23.902h-4.811V14.813z"/>
<path fill="#ffffff" d="M123.283,7.553h4.81v7.26h2.971v3.772h-2.971v13.246c0,2.218,0.848,2.359,2.971,2.359v4.524h-1.981
	c-4.337,0-5.799-3.064-5.799-5.608V18.585h-2.405v-3.772h2.405V7.553z"/>
<path fill="#ffffff" d="M132.709,34.896l7.78-15.84h-7.166v-4.244h12.634v3.82L138.18,34.19h7.777v4.524h-13.248V34.896z"/>
<path fill="#ffffff" d="M152.84,28.58v3.251c0,1.51,0.894,2.359,2.355,2.359c1.837,0,2.265-1.367,2.356-2.405h4.81
	c0,1.981-0.706,3.819-1.932,5.093c-1.275,1.317-3.02,2.121-5.234,2.121c-2.92,0-5.139-1.367-6.272-3.442
	c-0.656-1.226-0.894-2.922-0.894-4.856v-7.872c0-1.934,0.237-3.633,0.894-4.856c1.134-2.075,3.353-3.442,6.272-3.442
	c4.433,0,7.166,3.253,7.166,7.451v6.599H152.84z M152.84,24.808h4.712v-2.735c0-1.792-0.894-2.734-2.356-2.734
	c-1.462,0-2.355,0.941-2.355,2.734V24.808z"/>
<path fill="#ffffff" d="M164.908,14.813h4.807v2.544c1.981-1.743,3.581-2.827,6.364-2.827v5.091
	c-0.47-0.187-0.943-0.283-1.458-0.283c-2.027,0-4.906,1.273-4.906,5.187v14.189h-4.807V14.813z"/>
<g>
	<g>
		<path fill="#ffffff" d="M44.429,44.736h2.822c1.066,0,1.939,0.477,2.461,1.36c0.396,0.681,0.431,0.986,0.431,2.676
			c0,1.814-0.091,2.132-0.454,2.698c-0.476,0.748-1.314,1.338-2.517,1.338h-2.743V44.736z M45.653,51.652h1.462
			c0.691,0,1.18-0.238,1.497-0.703c0.271-0.408,0.306-0.635,0.306-2.132c0-1.451-0.034-1.802-0.362-2.244
			c-0.375-0.511-0.783-0.681-1.44-0.681h-1.462V51.652z"/>
		<path fill="#ffffff" d="M53.098,50.371c0,0.941,0.578,1.417,1.372,1.417c0.442,0,0.918-0.204,1.259-0.556l0.839,0.715
			c-0.567,0.657-1.304,0.93-2.075,0.93c-1.179,0-2.551-0.567-2.551-2.926c0-2.233,1.259-2.959,2.369-2.959
			c1.271,0,2.37,0.941,2.37,2.427v0.952H53.098z M55.524,49.419c-0.034-0.873-0.533-1.338-1.214-1.338
			c-0.68,0-1.19,0.465-1.213,1.338H55.524z M54.48,44.668H56l-1.609,1.655h-0.953L54.48,44.668z"/>
		<path fill="#ffffff" d="M57.766,47.061h1.225l1.35,4.024h0.022l1.349-4.024h1.225l-2.108,5.748h-0.952L57.766,47.061z"/>
		<path fill="#ffffff" d="M65.177,50.371c0,0.941,0.578,1.417,1.372,1.417c0.442,0,0.918-0.204,1.259-0.556l0.839,0.715
			c-0.567,0.657-1.304,0.93-2.075,0.93c-1.179,0-2.551-0.567-2.551-2.926c0-2.233,1.259-2.959,2.369-2.959
			c1.271,0,2.37,0.941,2.37,2.427v0.952H65.177z M67.604,49.419c-0.034-0.873-0.533-1.338-1.214-1.338
			c-0.68,0-1.19,0.465-1.213,1.338H67.604z"/>
		<path fill="#ffffff" d="M70.729,44.736h1.156v6.587c0,0.261,0.147,0.396,0.432,0.396h0.396v1.089h-0.511
			c-0.839,0-1.474-0.362-1.474-1.395V44.736z"/>
		<path fill="#ffffff" d="M74.752,47.729c0.318-0.352,0.851-0.737,1.746-0.737s1.429,0.386,1.746,0.737
			c0.442,0.487,0.624,0.964,0.624,2.199c0,1.247-0.182,1.724-0.624,2.211c-0.317,0.352-0.851,0.737-1.746,0.737
			s-1.428-0.386-1.746-0.737c-0.441-0.487-0.623-0.964-0.623-2.211C74.129,48.693,74.311,48.217,74.752,47.729z M77.428,48.568
			c-0.17-0.238-0.532-0.419-0.93-0.419c-0.396,0-0.759,0.181-0.93,0.419c-0.215,0.307-0.283,0.533-0.283,1.36
			c0,0.839,0.068,1.066,0.283,1.372c0.171,0.238,0.533,0.419,0.93,0.419c0.397,0,0.76-0.181,0.93-0.419
			c0.216-0.306,0.284-0.533,0.284-1.36C77.712,49.102,77.644,48.875,77.428,48.568z"/>
		<path fill="#ffffff" d="M80.837,47.061h1.156v0.601c0.363-0.396,0.896-0.669,1.485-0.669c0.703,0,1.213,0.317,1.542,0.749
			c0.317,0.408,0.408,0.782,0.408,2.199c0,1.405-0.091,1.779-0.408,2.188c-0.329,0.432-0.839,0.749-1.542,0.749
			c-0.589,0-1.054-0.272-1.485-0.681v2.937h-1.156V47.061z M84.272,49.94c0-0.896-0.057-1.791-1.146-1.791
			c-1.077,0-1.134,0.952-1.134,1.791c0,0.827,0.057,1.779,1.134,1.779C84.216,51.72,84.272,50.824,84.272,49.94z"/>
		<path fill="#ffffff" d="M87.478,47.061h1.156v0.601c0.363-0.396,0.896-0.669,1.485-0.669c0.703,0,1.213,0.317,1.542,0.749
			c0.317,0.408,0.408,0.782,0.408,2.199c0,1.405-0.091,1.779-0.408,2.188c-0.329,0.432-0.839,0.749-1.542,0.749
			c-0.589,0-1.054-0.272-1.485-0.681v2.937h-1.156V47.061z M90.913,49.94c0-0.896-0.057-1.791-1.146-1.791
			c-1.077,0-1.134,0.952-1.134,1.791c0,0.827,0.057,1.779,1.134,1.779C90.856,51.72,90.913,50.824,90.913,49.94z"/>
		<path fill="#ffffff" d="M94.991,50.371c0,0.941,0.578,1.417,1.372,1.417c0.442,0,0.918-0.204,1.259-0.556l0.839,0.715
			c-0.567,0.657-1.304,0.93-2.075,0.93c-1.179,0-2.551-0.567-2.551-2.926c0-2.233,1.259-2.959,2.369-2.959
			c1.271,0,2.37,0.941,2.37,2.427v0.952H94.991z M97.418,49.419c-0.034-0.873-0.533-1.338-1.214-1.338
			c-0.68,0-1.19,0.465-1.213,1.338H97.418z"/>
		<path fill="#ffffff" d="M100.543,47.061h1.156v3.424c0,0.782,0.488,1.235,1.146,1.235c0.646,0,1.134-0.453,1.134-1.235v-3.424
			h1.156v5.748h-1.156v-0.612h-0.022c-0.363,0.453-0.885,0.681-1.485,0.681c-0.907,0-1.928-0.692-1.928-1.996V47.061z"/>
		<path fill="#ffffff" d="M107.388,47.061h1.156v0.612h0.023c0.362-0.453,0.884-0.681,1.496-0.681c0.465,0,0.851,0.171,1.202,0.442
			l-0.839,0.998c-0.272-0.204-0.465-0.283-0.76-0.283c-0.567,0-1.123,0.362-1.123,1.201v3.458h-1.156V47.061z"/>
		<path fill="#ffffff" d="M116.136,44.736h1.156l2.312,5.261l2.268-5.261h1.156v8.072h-1.225v-5.034h-0.022l-1.689,3.878h-1.02
			l-1.689-3.878h-0.022v5.034h-1.225V44.736z"/>
		<path fill="#ffffff" d="M125.382,47.061h1.156v3.424c0,0.782,0.488,1.235,1.146,1.235c0.646,0,1.134-0.453,1.134-1.235v-3.424
			h1.156v5.748h-1.156v-0.612h-0.022c-0.363,0.453-0.885,0.681-1.485,0.681c-0.907,0-1.928-0.692-1.928-1.996V47.061z"/>
		<path fill="#ffffff" d="M132.227,44.736h1.156v6.587c0,0.261,0.147,0.396,0.432,0.396h0.396v1.089H133.7
			c-0.839,0-1.474-0.362-1.474-1.395V44.736z"/>
		<path fill="#ffffff" d="M135.978,45.314h1.156v1.746h0.839v0.885h-0.839v3.344c0,0.317,0.125,0.431,0.408,0.431h0.431v1.089
			h-0.601c-0.805,0-1.395-0.51-1.395-1.417v-3.446h-0.578v-0.885h0.578V45.314z"/>
		<path fill="#ffffff" d="M139.854,44.736h1.156v1.156h-1.156V44.736z M139.854,47.061h1.156v5.748h-1.156V47.061z"/>
		<path fill="#ffffff" d="M143.366,47.061h1.156v0.612h0.022c0.363-0.453,0.885-0.681,1.497-0.681c0.805,0,1.213,0.329,1.621,0.749
			c0.476-0.521,1.031-0.749,1.813-0.749c0.896,0,1.916,0.692,1.916,1.996v3.82h-1.156v-3.424c0-0.782-0.487-1.235-1.134-1.235
			c-0.657,0-1.145,0.453-1.145,1.235v3.424h-1.156v-3.424c0-0.782-0.488-1.235-1.134-1.235c-0.658,0-1.146,0.453-1.146,1.235v3.424
			h-1.156V47.061z"/>
		<path fill="#ffffff" d="M154.585,50.371c0,0.941,0.578,1.417,1.372,1.417c0.442,0,0.918-0.204,1.259-0.556l0.839,0.715
			c-0.567,0.657-1.304,0.93-2.075,0.93c-1.179,0-2.551-0.567-2.551-2.926c0-2.233,1.259-2.959,2.369-2.959
			c1.271,0,2.37,0.941,2.37,2.427v0.952H154.585z M157.012,49.419c-0.034-0.873-0.533-1.338-1.214-1.338
			c-0.68,0-1.19,0.465-1.213,1.338H157.012z M155.968,44.668h1.52l-1.609,1.655h-0.953L155.968,44.668z"/>
		<path fill="#ffffff" d="M163.572,52.208c-0.363,0.396-0.896,0.669-1.485,0.669c-0.703,0-1.213-0.317-1.542-0.749
			c-0.317-0.408-0.408-0.782-0.408-2.199c0-1.405,0.091-1.779,0.408-2.188c0.329-0.432,0.839-0.749,1.542-0.749
			c0.59,0,1.055,0.272,1.485,0.681v-2.937h1.156v8.072h-1.156V52.208z M161.293,49.929c0,0.896,0.057,1.791,1.146,1.791
			c1.077,0,1.134-0.952,1.134-1.791c0-0.827-0.057-1.779-1.134-1.779C161.35,48.149,161.293,49.045,161.293,49.929z"/>
		<path fill="#ffffff" d="M166.812,44.736h1.156v1.156h-1.156V44.736z M166.812,47.061h1.156v5.748h-1.156V47.061z"/>
		<path fill="#ffffff" d="M173.271,52.299h-0.022c-0.238,0.396-0.635,0.578-1.417,0.578c-1.281,0-2.029-0.76-2.029-1.758
			c0-0.918,0.635-1.7,1.87-1.7h1.599v-0.602c0-0.544-0.352-0.736-1.179-0.736c-0.601,0-0.885,0.113-1.089,0.442l-0.906-0.692
			c0.441-0.611,1.077-0.839,1.938-0.839c1.417,0,2.392,0.477,2.392,1.894v3.923h-1.156V52.299z M173.271,50.371h-1.383
			c-0.681,0-0.998,0.272-0.998,0.691c0,0.386,0.307,0.726,1.089,0.726c0.964,0,1.292-0.102,1.292-0.997V50.371z"/>
	</g>
</g>
<path fill="#7AC0C8" d="M17.973,0C8.062,0,0,8.063,0,17.976c0,5.99,2.973,11.564,7.95,14.917c0.111,0.073,0.271,0.184,0.527,0.312
	c-0.156,0.262-0.29,0.542-0.382,0.844c-0.386,1.337,0.012,2.709,0.912,3.65c-0.42,0.427-0.736,0.962-0.912,1.562
	c-0.278,0.964-0.168,1.984,0.316,2.865c0.222,0.406,0.52,0.756,0.863,1.046c-0.478,0.606-0.794,1.434-0.794,2.506
	c0,1.68,1.198,3.486,3.837,3.486h0.836c0.172,1.878,1.176,4.375,5.505,4.375c3.99,0,5.433-2.833,5.433-4.73v-1.058
	c0.1,0.008,0.191,0.02,0.287,0.02c1.66,0,3.146-1.117,3.615-2.717c0.282-0.966,0.168-1.983-0.317-2.867
	c-0.16-0.292-0.366-0.546-0.591-0.78c0.416-0.43,0.736-0.962,0.908-1.562c0.386-1.333-0.012-2.701-0.912-3.645
	c0.416-0.434,0.736-0.964,0.912-1.567c0.172-0.592,0.184-1.206,0.061-1.79c0.035-0.023,0.081-0.046,0.115-0.07
	c4.871-3.358,7.776-8.89,7.776-14.796C35.946,8.063,27.884,0,17.973,0z"/>
<path fill="#16C2A4" d="M4.484,19.952c0,6.907,5.367,12.286,11.991,12.286s11.996-5.379,11.996-12.286
	c0-6.908-5.372-12.505-11.996-12.505S4.484,13.043,4.484,19.952z"/>
<line fill="#FFFFFF" x1="11.715" y1="35.106" x2="24.379" y2="38.795"/>
<path fill="#FFFFFF" d="M24.379,40.283c-0.142,0-0.279-0.019-0.42-0.059l-12.66-3.688c-0.79-0.23-1.244-1.06-1.016-1.85
	c0.233-0.788,1.062-1.244,1.848-1.012l12.66,3.688c0.79,0.23,1.244,1.059,1.016,1.85C25.615,39.865,25.02,40.283,24.379,40.283z"/>
<line fill="#FFFFFF" x1="11.715" y1="40.312" x2="24.379" y2="44.004"/>
<path fill="#FFFFFF" d="M24.379,45.493c-0.142,0-0.279-0.018-0.42-0.06l-12.66-3.689c-0.79-0.229-1.244-1.058-1.016-1.849
	c0.233-0.79,1.062-1.242,1.848-1.013l12.66,3.693c0.79,0.228,1.244,1.054,1.016,1.844C25.615,45.071,25.02,45.493,24.379,45.493z"/>
<path fill="#FFFFFF" d="M23.252,46.887l-10.739-2.639c0,0-1.752-0.63-1.752,1.43c0,0.793,0.561,1.209,1.558,1.209H23.252z"/>
<path fill="#FFFFFF" d="M15.418,48.809h6.398c0,0,0,2.451-3.157,2.451C15.418,51.26,15.418,48.809,15.418,48.809z"/>
<path fill="#FFFFFF" d="M17.851,33.233l6.108,1.781c0.141,0.04,0.278,0.06,0.42,0.06c0.641,0,1.236-0.424,1.428-1.071
	c0.16-0.551-0.027-1.104-0.405-1.475C22.836,33.167,19.209,33.231,17.851,33.233z"/>
<path fill="#FFFFFF" d="M17.973,2.279c-8.667,0-15.691,7.028-15.691,15.697c0,5.425,2.753,10.209,6.94,13.029
	c0.932,0.629,3.279,1.016,5.982,1.164c-0.038-5.347-6.165-6.911-6.165-14.64c0-4.828,3.547-8.506,8.689-8.506
	c4.031,0,7.918,2.699,7.918,6.918c0,5.011-4.387,6.58-5.788,6.58c-0.672,0-1.233-0.42-1.256-1.191l-0.038-0.04
	c-0.565,0.645-1.443,1.231-2.279,1.231c-2.317,0-3.699-1.88-3.699-4.033c0-2.734,1.634-5.389,4.703-5.389
	c1.126,0,2.088,0.418,2.76,1.401l0.248-1.13h2.066l-1.149,5.559c-0.038,0.229-0.146,0.46-0.146,0.752
	c0,0.311,0.062,0.582,0.336,0.582c1.043,0,2.317-1.273,2.317-3.697c0-3.656-2.611-5.618-6.077-5.618
	c-3.635,0-6.705,2.801-6.705,6.582c0,7.428,5.796,7.875,5.804,14.696c4.181,0.088,8.728-0.354,10.136-1.33
	c4.101-2.827,6.788-7.561,6.788-12.919C33.667,9.308,26.643,2.279,17.973,2.279z"/>
<path fill="#FFFFFF" d="M15.136,18.091c0,1.088,0.668,1.922,1.756,1.922c1.481,0,2.485-1.357,2.485-2.754
	c0-1.09-0.71-1.861-1.794-1.861C16.182,15.397,15.136,16.796,15.136,18.091z"/>
</svg>
