<?xml version="1.0" encoding="utf-8"?>
<!-- Generator: Adobe Illustrator 15.0.0, SVG Export Plug-In  -->
<!DOCTYPE svg PUBLIC "-//W3C//DTD SVG 1.1//EN" "http://www.w3.org/Graphics/SVG/1.1/DTD/svg11.dtd" [
	<!ENTITY ns_flows "http://ns.adobe.com/Flows/1.0/">
]>
<svg version="1.1"
	 xmlns="http://www.w3.org/2000/svg" xmlns:xlink="http://www.w3.org/1999/xlink" xmlns:a="http://ns.adobe.com/AdobeSVGViewerExtensions/3.0/"
	 x="0px" y="0px" width="464px" height="121px" viewBox="0 0 464 121" overflow="visible" enable-background="new 0 0 464 121"
	 xml:space="preserve">
<defs>
</defs>
<path fill="#E8E61A" d="M130.662,83.124h-9.536l-7.748-45.865h-0.193l-7.641,45.865h-9.536L85.487,12.437h10.721l5.064,44.872h0.2
	l7.941-44.872h7.748l8.237,45.968h0.193l4.872-45.968h10.721L130.662,83.124z"/>
<path fill="#E8E61A" d="M152.297,61.777v6.849c0,3.18,1.884,4.965,4.961,4.965c3.869,0,4.765-2.88,4.961-5.064h10.125
	c0,4.168-1.482,8.041-4.069,10.721c-2.676,2.78-6.356,4.468-11.017,4.468c-6.156,0-10.824-2.877-13.205-7.246
	c-1.389-2.583-1.885-6.156-1.885-10.221V49.665c0-4.069,0.496-7.641,1.885-10.225c2.381-4.369,7.049-7.249,13.205-7.249
	c9.333,0,15.086,6.853,15.086,15.689v13.898L152.297,61.777L152.297,61.777z M152.297,53.836h9.922v-5.76
	c0-3.775-1.884-5.757-4.961-5.757c-3.077,0-4.961,1.981-4.961,5.757V53.836z"/>
<path fill="#E8E61A" d="M179.79,12.437h10.128v24.922h0.2c2.181-3.28,5.354-5.168,9.326-5.168c4.865,0,7.348,1.888,9.04,4.568
	c1.288,2.081,1.585,4.961,1.585,12.209V68.13c0,5.561-0.496,8.637-1.688,10.821c-1.789,3.276-4.761,4.765-8.833,4.765
	c-5.061,0-7.049-2.281-9.629-5.161v4.568H179.79V12.437z M199.943,48.276c0-3.172-1.092-5.957-4.96-5.957
	c-2.884,0-5.064,2.284-5.064,5.46v19.558c0,3.669,1.981,6.253,5.064,6.253c3.469,0,4.96-2.781,4.96-6.849V48.276z"/>
<path fill="#FFFFFF" d="M217.802,12.437h10.129v56.486c0,3.772,1.095,4.868,4.968,5.264v9.529c-9.336,0-15.097-2.381-15.097-14.094
	V12.437z"/>
<path fill="#FFFFFF" d="M238.948,12.437h10.128v10.125h-10.128V12.437z M238.948,32.787h10.128v50.336h-10.128V32.787z"/>
<path fill="#FFFFFF" d="M259.495,17.501h10.125v15.286h6.26v7.94h-6.26v27.898c0,4.665,1.788,4.965,6.26,4.965v9.533h-4.169
	c-9.133,0-12.216-6.457-12.216-11.817V40.728h-5.064v-7.94h5.064V17.501z"/>
<path fill="#FFFFFF" d="M279.35,75.079l16.384-33.359h-15.093v-8.933h26.606v8.044l-16.385,32.76h16.385v9.533H279.35V75.079z"/>
<path fill="#FFFFFF" d="M321.738,61.777v6.849c0,3.18,1.884,4.965,4.961,4.965c3.867,0,4.764-2.88,4.968-5.064h10.117
	c0,4.168-1.481,8.041-4.062,10.721c-2.684,2.78-6.355,4.468-11.023,4.468c-6.157,0-10.817-2.877-13.205-7.246
	c-1.389-2.583-1.887-6.156-1.887-10.221V49.665c0-4.069,0.498-7.641,1.887-10.225c2.388-4.369,7.048-7.249,13.205-7.249
	c9.333,0,15.085,6.853,15.085,15.689v13.898L321.738,61.777L321.738,61.777z M321.738,53.836h9.929v-5.76
	c0-3.775-1.894-5.757-4.968-5.757c-3.077,0-4.961,1.981-4.961,5.757V53.836z"/>
<path fill="#FFFFFF" d="M347.146,32.787h10.127v5.36c4.168-3.669,7.541-5.957,13.404-5.957v10.725
	c-0.992-0.396-1.986-0.596-3.084-0.596c-4.265,0-10.32,2.681-10.32,10.921v29.883h-10.127V32.787L347.146,32.787z"/>
<text transform="matrix(1 0 0 1 93.9634 112.8174)" fill="#FFFFFF" font-family="'DINMittelschriftStd'" font-size="23.9607">Développeur Multimédia</text>
<path fill="#FFFFFF" d="M37.793,0C13.429,0,0,17.587,0,39.505c0,12.599,6.25,23.23,16.716,30.279
	c0.227,0.151,0.571,0.382,1.102,0.651c-0.324,0.554-0.606,2.239-0.792,2.869c-0.819,2.815,0.021,5.699,1.916,7.679
	c-0.881,0.903-1.55,2.023-1.916,3.283c-0.592,2.033-0.358,4.176,0.662,6.029c0.469,0.855,1.096,1.585,1.812,2.199
	c-1,1.281-1.668,3.011-1.668,5.274c0,3.531,2.529,7.324,8.068,7.324h1.765c0.358,3.956,2.473,9.203,11.575,9.203
	c8.393,0,11.431-5.95,11.431-9.946v-2.222c0.2,0.018,0.393,0.042,0.593,0.042c3.5,0,6.621-2.35,7.613-5.716
	c0.586-2.032,0.352-4.176-0.675-6.032c-0.337-0.613-0.771-1.147-1.24-1.64c0.875-0.902,1.551-2.022,1.916-3.279
	c0.813-2.808-0.034-5.688-1.922-7.669c0.875-0.906,1.55-2.026,1.922-3.293c0.359-1.248,0.379-4.369,0.117-5.602
	c0.083-0.049,0.172-0.093,0.248-0.145c10.239-7.062,16.351-16.864,16.351-29.287C75.592,17.587,61.054,0,37.793,0z"/>
<path fill="#E8E61A" d="M9.426,41.923c0,14.528,11.293,25.842,25.225,25.842c13.932,0,25.225-11.314,25.225-25.842
	c0-14.524-11.293-26.297-25.225-26.297C20.719,15.626,9.426,27.399,9.426,41.923z"/>
<line fill="none" x1="24.632" y1="75.53" x2="51.263" y2="83.285"/>
<path fill="#7AC1C9" d="M51.263,86.42c-0.289,0-0.586-0.044-0.875-0.121l-26.624-7.758c-1.667-0.49-2.618-2.229-2.136-3.894
	c0.482-1.66,2.226-2.614,3.886-2.129l26.624,7.762c1.661,0.486,2.618,2.222,2.136,3.886C53.875,85.538,52.621,86.42,51.263,86.42z"
	/>
<line fill="none" x1="24.632" y1="86.482" x2="51.263" y2="94.244"/>
<path fill="#7AC1C9" d="M51.263,97.375c-0.289,0-0.586-0.038-0.875-0.127l-26.624-7.762c-1.667-0.479-2.618-2.219-2.136-3.882
	c0.482-1.661,2.226-2.612,3.886-2.133l26.624,7.769c1.661,0.479,2.618,2.219,2.136,3.879C53.875,96.486,52.621,97.375,51.263,97.375
	z"/>
<path fill="#7AC1C9" d="M48.9,100.304L26.313,94.76c0,0-3.693-1.326-3.693,3.008c0,1.657,1.185,2.536,3.279,2.536H48.9z"/>
<path fill="#7AC1C9" d="M32.418,104.348h13.463c0,0,0,5.157-6.643,5.157C32.418,109.505,32.418,104.348,32.418,104.348z"/>
<path fill="#7AC1C9" d="M37.538,71.596l12.851,3.745c0.289,0.083,0.586,0.124,0.875,0.124c1.357,0,2.611-0.892,3.011-2.256
	c0.331-1.154-0.055-2.315-0.854-3.097C48.018,71.448,40.397,71.589,37.538,71.596z"/>
<path fill="#7AC1C9" d="M37.793,4.757c-18.225,0-33.004,14.78-33.004,33.015c0,11.41,5.795,21.466,14.601,27.399
	c1.963,1.323,6.897,2.136,12.582,2.449c-0.076-11.245-12.967-14.535-12.967-30.789c0-10.149,7.469-17.883,18.272-17.883
	c8.482,0,16.654,5.67,16.654,14.545c0,10.539-9.226,13.839-12.168,13.839c-1.413,0-2.591-0.885-2.64-2.504l-0.089-0.086
	c-1.179,1.358-3.025,2.591-4.782,2.591c-4.878,0-7.779-3.955-7.779-8.482c0-5.756,3.425-11.334,9.888-11.334
	c2.37,0,4.389,0.875,5.801,2.945l0.517-2.374h4.355l-2.42,11.682c-0.083,0.486-0.31,0.971-0.31,1.584c0,0.658,0.131,1.23,0.71,1.23
	c2.191,0,4.871-2.68,4.871-7.775c0-7.689-5.484-11.816-12.781-11.816C29.462,22.993,23,28.88,23,36.831
	c0,15.624,12.196,16.561,12.209,30.906C44,67.923,53.557,66.993,56.52,64.95c8.634-5.953,14.284-15.909,14.284-27.178
	C70.804,19.537,56.024,4.757,37.793,4.757z"/>
<path fill="#7AC1C9" d="M31.833,38.017c0,2.284,1.405,4.041,3.686,4.041c3.122,0,5.229-2.856,5.229-5.798
	c0-2.284-1.495-3.91-3.776-3.91C34.031,32.35,31.833,35.292,31.833,38.017z"/>
</svg>
